<svg width="154" height="152" viewBox="0 0 154 152" fill="none" xmlns="http://www.w3.org/2000/svg">
<path d="M89.3401 54.6298L114.752 112.542C117.907 119.767 100.973 127.981 88.0176 129.595C67.808 132.115 46.4184 124.339 47.7948 116.102L59.0483 52.5132L89.3401 54.6298Z" fill="#EFE4B5"/>
<path d="M73.7834 61.7262C89.1574 60.4475 100.845 50.3405 99.8902 39.1514C99.511 34.712 86.7415 32.1499 71.3675 33.4276C55.9935 34.7063 43.8381 39.3414 44.2173 43.7807C45.1721 54.9708 58.4094 63.0049 73.7824 61.7272L73.7834 61.7262Z" fill="#2596BE"/>
<path d="M39.2266 48.2989L38.8724 44.1541L40.8657 43.9888C45.0766 38.8968 56.8923 34.5296 71.0969 33.3488C85.3005 32.1679 97.6898 34.522 102.705 38.8474L104.701 38.6811L105.062 42.9058C105.641 49.6954 91.3748 56.4252 73.1961 57.9367C55.0183 59.4481 39.8118 55.1693 39.2323 48.3787C39.2304 48.3521 39.2285 48.3255 39.2266 48.298V48.2989Z" fill="#020202"/>
<path d="M38.8738 44.2644C38.2938 37.4746 52.5597 30.7439 70.7378 29.231C88.9158 27.7181 104.122 31.9958 104.702 38.7856C105.282 45.5754 91.0165 52.3061 72.8384 53.819C54.6604 55.332 39.4539 51.0542 38.8738 44.2644Z" fill="#2596BE"/>
<path d="M69.5157 21.9811C78.6922 21.2183 86.7579 27.9424 87.5308 36.9987C87.8378 40.5916 80.647 44.1237 71.4705 44.8866C62.2941 45.6494 54.6066 43.3552 54.2995 39.7613C53.5266 30.704 60.3392 22.743 69.5147 21.9802L69.5157 21.9811Z" fill="#EFE4B5"/>
<path d="M69.4765 50.5549C69.3793 49.4167 70.7802 48.3709 72.6055 48.219C74.4308 48.067 75.9894 48.8665 76.0866 50.0047C76.1839 51.1429 74.783 52.1887 72.9576 52.3406C71.1323 52.4925 69.5738 51.693 69.4765 50.5549Z" fill="white" stroke="#2596BE" stroke-width="2" stroke-miterlimit="10"/>
<path d="M92.6069 39.4592C92.5457 39.253 92.5055 39.0393 92.4864 38.817C92.4806 38.7505 92.4768 38.684 92.4758 38.6184C92.4567 38.7296 92.4519 38.8417 92.4615 38.9547C92.4768 39.1314 92.5265 39.3005 92.6069 39.4582V39.4592Z" fill="white" stroke="#2596BE" stroke-width="2" stroke-miterlimit="10"/>
<path d="M92.3549 38.8483C92.3741 39.0792 92.4174 39.3024 92.481 39.5162C92.9401 40.4101 94.3453 40.983 95.9488 40.849C97.5514 40.716 98.8402 39.919 99.1415 38.9623C99.1684 38.741 99.1723 38.5139 99.153 38.2831C99.1472 38.2137 99.1395 38.1453 99.1289 38.0779C98.871 36.3299 97.2752 35.0597 95.4676 35.2108C93.66 35.3609 92.301 36.8761 92.3433 38.6422C92.3452 38.7106 92.3481 38.779 92.3549 38.8483Z" fill="#D5D3E0"/>
<path d="M69.3808 50.4935C69.4 50.7243 69.4433 50.9476 69.5068 51.1613C69.966 52.0553 71.3712 52.6281 72.9747 52.4942C74.5773 52.3612 75.8661 51.5641 76.1673 50.6075C76.1943 50.3861 76.1981 50.1591 76.1789 49.9282C76.1731 49.8589 76.1654 49.7905 76.1548 49.723C75.8969 47.975 74.3011 46.7049 72.4935 46.8559C70.6859 47.006 69.3268 48.5213 69.3692 50.2873C69.3711 50.3557 69.374 50.4241 69.3808 50.4935Z" fill="#D5D3E0"/>
<path d="M43.9227 42.8754C43.942 43.1063 43.9853 43.3295 44.0488 43.5433C44.5079 44.4372 45.9132 45.0101 47.5167 44.8761C49.1193 44.7431 50.4081 43.9461 50.7093 42.9894C50.7363 42.7681 50.7401 42.541 50.7209 42.3102C50.7151 42.2408 50.7074 42.1724 50.6968 42.105C50.4389 40.357 48.843 39.0868 47.0355 39.2379C45.2279 39.388 43.8688 40.9032 43.9112 42.6693C43.9131 42.7377 43.916 42.8061 43.9227 42.8754Z" fill="#D5D3E0"/>
<path d="M72.891 85.2805L83.6306 80.2085L76.716 65.9442L68.2431 69.9456C67.7811 71.2376 67.5222 71.9615 67.0612 73.2535L72.891 85.2796V85.2805Z" fill="white" stroke="#2596BE" stroke-width="2" stroke-miterlimit="10"/>
<path d="M67.0612 73.2545L68.2431 69.9466L69.3279 72.1838L67.0612 73.2545Z" fill="#00AB55"/>
<path d="M69.2816 97.68L92.6136 105.68L97.6821 98.0875L70.0728 88.6217L69.2816 97.68Z" fill="white" stroke="#2596BE" stroke-width="2" stroke-miterlimit="10"/>
<path d="M70.4359 87.5692L98.0442 97.0373L97.6768 98.0809L70.0686 88.6129L70.4359 87.5692Z" fill="#00AB55"/>
<path d="M69.276 97.6716L92.6074 105.673L88.4473 117.49L65.1159 109.489L69.276 97.6716Z" fill="#00AB55"/>
<path d="M70.0605 99.243L91.0054 106.426L87.6635 115.919L66.7186 108.736L70.0605 99.243Z" fill="#D5D3E0"/>
<path d="M90.1689 108.825L69.223 101.644" stroke="white" stroke-width="2" stroke-miterlimit="10"/>
<path d="M89.3423 111.176L68.3964 103.994" stroke="white" stroke-width="2" stroke-miterlimit="10"/>
<path d="M67.5695 106.344L88.5154 113.525" stroke="white" stroke-width="2" stroke-miterlimit="10"/>
<path d="M70.2943 109.867L73.5908 100.5" stroke="white" stroke-width="2" stroke-miterlimit="10"/>
<path d="M73.7757 111.06L77.0723 101.694" stroke="white" stroke-width="2" stroke-miterlimit="10"/>
<path d="M77.2581 112.254L80.5537 102.888" stroke="white" stroke-width="2" stroke-miterlimit="10"/>
<path d="M80.7393 113.447L84.0349 104.081" stroke="white" stroke-width="2" stroke-miterlimit="10"/>
<path d="M84.2208 114.641L87.5173 105.275" stroke="white" stroke-width="2" stroke-miterlimit="10"/>
<path d="M96.5146 114.234C97.2317 115.755 97.9497 117.275 98.6667 118.796" stroke="#020202" stroke-width="2" stroke-linecap="round" stroke-linejoin="round"/>
<path d="M90.323 118.684C90.656 119.77 90.99 120.856 91.323 121.943" stroke="#020202" stroke-width="2" stroke-linecap="round" stroke-linejoin="round"/>
<path d="M84.9252 118.153C85.2784 120.564 85.6316 122.975 85.9849 125.385" stroke="#020202" stroke-width="2" stroke-linecap="round" stroke-linejoin="round"/>
<path d="M62.4375 81.566C61.834 83.9277 61.2305 86.2894 60.627 88.6511" stroke="#020202" stroke-width="2" stroke-linecap="round" stroke-linejoin="round"/>
<path d="M68.7715 115.472C68.5212 116.579 68.271 117.688 68.0207 118.796" stroke="#020202" stroke-width="2" stroke-linecap="round" stroke-linejoin="round"/>
<path d="M67.4365 80.0461C67.1863 81.1538 66.936 82.2624 66.6858 83.3701" stroke="#020202" stroke-width="2" stroke-linecap="round" stroke-linejoin="round"/>
</svg>
