<svg width="226" height="34" viewBox="0 0 226 34" fill="none" xmlns="http://www.w3.org/2000/svg">
<path d="M55.1197 27C54.8163 27 54.5508 26.8957 54.3232 26.6871C54.1146 26.4596 54.0104 26.1941 54.0104 25.8907V5.89422C54.0104 5.57185 54.1146 5.30637 54.3232 5.09777C54.5508 4.88918 54.8163 4.78489 55.1197 4.78489C55.5748 4.78489 55.9067 4.97452 56.1152 5.35378L65.701 24.4116H64.7339L74.149 5.35378C74.3766 4.97452 74.7084 4.78489 75.1446 4.78489C75.448 4.78489 75.704 4.88918 75.9126 5.09777C76.1212 5.30637 76.2255 5.57185 76.2255 5.89422V25.8907C76.2255 26.1941 76.1212 26.4596 75.9126 26.6871C75.704 26.8957 75.448 27 75.1446 27C74.8222 27 74.5472 26.8957 74.3197 26.6871C74.1111 26.4596 74.0068 26.1941 74.0068 25.8907V8.76711L74.4904 8.79555L66.0992 25.9476C65.8907 26.3079 65.5683 26.488 65.1321 26.488C64.6581 26.488 64.3167 26.2604 64.1081 25.8053L55.6601 8.90933L56.229 8.76711V25.8907C56.229 26.1941 56.1152 26.4596 55.8877 26.6871C55.6791 26.8957 55.4231 27 55.1197 27ZM88.2701 27.1422C86.7341 27.1422 85.3688 26.8104 84.1741 26.1467C82.9984 25.464 82.0692 24.5253 81.3866 23.3307C80.7229 22.136 80.391 20.7707 80.391 19.2347C80.391 17.6797 80.7039 16.3144 81.3297 15.1387C81.9744 13.944 82.8562 13.0053 83.975 12.3227C85.0938 11.64 86.3833 11.2987 87.8435 11.2987C89.2847 11.2987 90.5362 11.6305 91.5981 12.2942C92.679 12.939 93.5134 13.8397 94.1012 14.9964C94.6891 16.1532 94.983 17.4711 94.983 18.9502C94.983 19.2536 94.8882 19.5001 94.6986 19.6898C94.5089 19.8604 94.2624 19.9458 93.959 19.9458H81.8701V18.1253H94.1866L92.9635 19.0071C92.9824 17.9073 92.7833 16.9212 92.3661 16.0489C91.9489 15.1766 91.3516 14.4939 90.5741 14.0009C89.8156 13.5079 88.9054 13.2613 87.8435 13.2613C86.7626 13.2613 85.8144 13.5173 84.999 14.0293C84.1836 14.5413 83.5484 15.2524 83.0932 16.1627C82.6571 17.0539 82.439 18.0779 82.439 19.2347C82.439 20.3914 82.6855 21.4154 83.1786 22.3067C83.6906 23.1979 84.3827 23.8996 85.255 24.4116C86.1273 24.9236 87.1324 25.1796 88.2701 25.1796C88.9528 25.1796 89.6355 25.0658 90.3181 24.8382C91.0198 24.5917 91.5792 24.2883 91.9964 23.928C92.2049 23.7573 92.442 23.672 92.7075 23.672C92.9729 23.653 93.2005 23.7194 93.3901 23.8711C93.6367 24.0987 93.7599 24.3452 93.7599 24.6107C93.7789 24.8761 93.6746 25.1037 93.447 25.2933C92.8212 25.8243 92.0248 26.2699 91.0577 26.6302C90.0906 26.9716 89.1614 27.1422 88.2701 27.1422ZM104.789 27.1422C103.291 27.1422 101.944 26.8009 100.749 26.1182C99.5548 25.4166 98.6067 24.4684 97.905 23.2738C97.2224 22.0791 96.881 20.7233 96.881 19.2062C96.881 17.7081 97.2129 16.3618 97.8766 15.1671C98.5592 13.9724 99.4789 13.0338 100.636 12.3511C101.792 11.6495 103.101 11.2987 104.561 11.2987C105.832 11.2987 106.979 11.5736 108.003 12.1236C109.027 12.6545 109.852 13.3656 110.477 14.2569V5.89422C110.477 5.55289 110.582 5.2874 110.79 5.09777C110.999 4.88918 111.264 4.78489 111.587 4.78489C111.909 4.78489 112.175 4.88918 112.383 5.09777C112.592 5.2874 112.696 5.55289 112.696 5.89422V19.32C112.658 20.7991 112.288 22.136 111.587 23.3307C110.904 24.5064 109.965 25.4356 108.771 26.1182C107.595 26.8009 106.268 27.1422 104.789 27.1422ZM104.789 25.1511C105.888 25.1511 106.865 24.8951 107.718 24.3831C108.591 23.8521 109.273 23.141 109.766 22.2498C110.278 21.3585 110.534 20.344 110.534 19.2062C110.534 18.0874 110.278 17.0824 109.766 16.1911C109.273 15.2809 108.591 14.5698 107.718 14.0578C106.865 13.5458 105.888 13.2898 104.789 13.2898C103.708 13.2898 102.731 13.5458 101.859 14.0578C100.987 14.5698 100.294 15.2809 99.7824 16.1911C99.2704 17.0824 99.0144 18.0874 99.0144 19.2062C99.0144 20.344 99.2704 21.3585 99.7824 22.2498C100.294 23.141 100.987 23.8521 101.859 24.3831C102.731 24.8951 103.708 25.1511 104.789 25.1511ZM116.452 27C116.016 27 115.703 26.8199 115.513 26.4596C115.323 26.0993 115.304 25.7484 115.456 25.4071L123.819 5.55289C124.027 5.04089 124.388 4.78489 124.9 4.78489C125.393 4.78489 125.744 5.04089 125.952 5.55289L134.343 25.4356C134.514 25.7959 134.485 26.1467 134.258 26.488C134.049 26.8293 133.746 27 133.348 27C133.12 27 132.912 26.9431 132.722 26.8293C132.551 26.7156 132.409 26.5449 132.295 26.3173L124.473 7.34489H125.355L117.476 26.3173C117.381 26.5449 117.239 26.7156 117.049 26.8293C116.878 26.9431 116.679 27 116.452 27ZM118.329 21.7093L119.182 19.8036H130.731L131.584 21.7093H118.329ZM143.263 27.1422C141.765 27.1422 140.438 26.8104 139.281 26.1467C138.124 25.464 137.214 24.5253 136.55 23.3307C135.906 22.136 135.583 20.7707 135.583 19.2347C135.583 17.6797 135.925 16.3049 136.607 15.1102C137.29 13.9156 138.229 12.9864 139.423 12.3227C140.618 11.64 141.974 11.2987 143.491 11.2987C145.027 11.2987 146.383 11.64 147.558 12.3227C148.753 12.9864 149.682 13.9156 150.346 15.1102C151.029 16.3049 151.379 17.6797 151.398 19.2347L150.118 19.9173C150.118 21.3206 149.824 22.5721 149.237 23.672C148.649 24.7529 147.833 25.6062 146.79 26.232C145.766 26.8388 144.591 27.1422 143.263 27.1422ZM143.548 33.144C142.05 33.144 140.732 32.8596 139.594 32.2907C138.456 31.7407 137.517 30.9822 136.778 30.0151C136.569 29.7876 136.475 29.541 136.493 29.2756C136.531 29.0101 136.674 28.792 136.92 28.6213C137.167 28.4507 137.442 28.3938 137.745 28.4507C138.048 28.5076 138.285 28.6498 138.456 28.8773C139.006 29.56 139.708 30.1099 140.561 30.5271C141.433 30.9443 142.438 31.1529 143.576 31.1529C144.638 31.1529 145.596 30.8969 146.449 30.3849C147.302 29.8729 147.976 29.1523 148.469 28.2231C148.981 27.2939 149.237 26.2036 149.237 24.952V20.6284L150.061 18.9787L151.398 19.2347V25.0373C151.398 26.5733 151.057 27.9481 150.374 29.1618C149.692 30.3944 148.763 31.3615 147.587 32.0631C146.411 32.7837 145.065 33.144 143.548 33.144ZM143.491 25.1511C144.61 25.1511 145.596 24.9046 146.449 24.4116C147.321 23.8996 148.004 23.1979 148.497 22.3067C148.99 21.4154 149.237 20.3914 149.237 19.2347C149.237 18.0779 148.99 17.0539 148.497 16.1627C148.004 15.2524 147.321 14.5508 146.449 14.0578C145.596 13.5458 144.61 13.2898 143.491 13.2898C142.372 13.2898 141.376 13.5458 140.504 14.0578C139.632 14.5508 138.949 15.2524 138.456 16.1627C137.963 17.0539 137.717 18.0779 137.717 19.2347C137.717 20.3914 137.963 21.4154 138.456 22.3067C138.949 23.1979 139.632 23.8996 140.504 24.4116C141.376 24.9046 142.372 25.1511 143.491 25.1511ZM162.286 27.1422C160.75 27.1422 159.384 26.8104 158.19 26.1467C157.014 25.464 156.085 24.5253 155.402 23.3307C154.738 22.136 154.407 20.7707 154.407 19.2347C154.407 17.6797 154.719 16.3144 155.345 15.1387C155.99 13.944 156.872 13.0053 157.991 12.3227C159.109 11.64 160.399 11.2987 161.859 11.2987C163.3 11.2987 164.552 11.6305 165.614 12.2942C166.695 12.939 167.529 13.8397 168.117 14.9964C168.705 16.1532 168.999 17.4711 168.999 18.9502C168.999 19.2536 168.904 19.5001 168.714 19.6898C168.525 19.8604 168.278 19.9458 167.975 19.9458H155.886V18.1253H168.202L166.979 19.0071C166.998 17.9073 166.799 16.9212 166.382 16.0489C165.965 15.1766 165.367 14.4939 164.59 14.0009C163.831 13.5079 162.921 13.2613 161.859 13.2613C160.778 13.2613 159.83 13.5173 159.015 14.0293C158.199 14.5413 157.564 15.2524 157.109 16.1627C156.673 17.0539 156.455 18.0779 156.455 19.2347C156.455 20.3914 156.701 21.4154 157.194 22.3067C157.706 23.1979 158.398 23.8996 159.271 24.4116C160.143 24.9236 161.148 25.1796 162.286 25.1796C162.968 25.1796 163.651 25.0658 164.334 24.8382C165.035 24.5917 165.595 24.2883 166.012 23.928C166.221 23.7573 166.458 23.672 166.723 23.672C166.989 23.653 167.216 23.7194 167.406 23.8711C167.652 24.0987 167.775 24.3452 167.775 24.6107C167.794 24.8761 167.69 25.1037 167.463 25.2933C166.837 25.8243 166.04 26.2699 165.073 26.6302C164.106 26.9716 163.177 27.1422 162.286 27.1422ZM185.617 27C185.295 27 185.03 26.8957 184.821 26.6871C184.612 26.4785 184.508 26.2225 184.508 25.9191V18.5236C184.508 17.3479 184.281 16.3807 183.825 15.6222C183.389 14.8637 182.783 14.2948 182.005 13.9156C181.247 13.5363 180.384 13.3467 179.417 13.3467C178.487 13.3467 177.644 13.5268 176.885 13.8871C176.145 14.2474 175.558 14.7404 175.121 15.3662C174.685 15.992 174.467 16.7031 174.467 17.4996H172.903C172.941 16.3049 173.263 15.243 173.87 14.3138C174.477 13.3656 175.283 12.6261 176.288 12.0951C177.293 11.5452 178.412 11.2702 179.644 11.2702C180.991 11.2702 182.195 11.5547 183.257 12.1236C184.319 12.6735 185.153 13.4889 185.76 14.5698C186.385 15.6507 186.698 16.9686 186.698 18.5236V25.9191C186.698 26.2225 186.594 26.4785 186.385 26.6871C186.177 26.8957 185.921 27 185.617 27ZM173.386 27C173.045 27 172.77 26.9052 172.561 26.7156C172.372 26.507 172.277 26.2415 172.277 25.9191V12.5502C172.277 12.2089 172.372 11.9434 172.561 11.7538C172.77 11.5452 173.045 11.4409 173.386 11.4409C173.709 11.4409 173.965 11.5452 174.154 11.7538C174.363 11.9434 174.467 12.2089 174.467 12.5502V25.9191C174.467 26.2415 174.363 26.507 174.154 26.7156C173.965 26.9052 173.709 27 173.386 27ZM198.183 27.1422C196.685 27.1422 195.339 26.8009 194.144 26.1182C192.949 25.4166 192.001 24.4684 191.299 23.2738C190.617 22.0791 190.275 20.7233 190.275 19.2062C190.275 17.7081 190.607 16.3618 191.271 15.1671C191.954 13.9724 192.873 13.0338 194.03 12.3511C195.187 11.6495 196.495 11.2987 197.955 11.2987C199.226 11.2987 200.373 11.5736 201.397 12.1236C202.421 12.6545 203.246 13.3656 203.872 14.2569V5.89422C203.872 5.55289 203.976 5.2874 204.185 5.09777C204.393 4.88918 204.659 4.78489 204.981 4.78489C205.304 4.78489 205.569 4.88918 205.778 5.09777C205.986 5.2874 206.091 5.55289 206.091 5.89422V19.32C206.053 20.7991 205.683 22.136 204.981 23.3307C204.299 24.5064 203.36 25.4356 202.165 26.1182C200.99 26.8009 199.662 27.1422 198.183 27.1422ZM198.183 25.1511C199.283 25.1511 200.259 24.8951 201.113 24.3831C201.985 23.8521 202.668 23.141 203.161 22.2498C203.673 21.3585 203.929 20.344 203.929 19.2062C203.929 18.0874 203.673 17.0824 203.161 16.1911C202.668 15.2809 201.985 14.5698 201.113 14.0578C200.259 13.5458 199.283 13.2898 198.183 13.2898C197.102 13.2898 196.126 13.5458 195.253 14.0578C194.381 14.5698 193.689 15.2809 193.177 16.1911C192.665 17.0824 192.409 18.0874 192.409 19.2062C192.409 20.344 192.665 21.3585 193.177 22.2498C193.689 23.141 194.381 23.8521 195.253 24.3831C196.126 24.8951 197.102 25.1511 198.183 25.1511ZM217.64 27.1422C216.18 27.1422 214.871 26.8009 213.715 26.1182C212.558 25.4166 211.638 24.4684 210.955 23.2738C210.292 22.0791 209.96 20.7327 209.96 19.2347C209.96 17.7176 210.301 16.3618 210.984 15.1671C211.686 13.9724 212.634 13.0338 213.828 12.3511C215.023 11.6495 216.369 11.2987 217.867 11.2987C219.366 11.2987 220.702 11.6495 221.878 12.3511C223.073 13.0338 224.011 13.9724 224.694 15.1671C225.396 16.3618 225.756 17.7176 225.775 19.2347L224.893 19.9173C224.893 21.2827 224.571 22.5153 223.926 23.6151C223.3 24.696 222.438 25.5588 221.338 26.2036C220.257 26.8293 219.024 27.1422 217.64 27.1422ZM217.867 25.1511C218.967 25.1511 219.944 24.8951 220.797 24.3831C221.67 23.8711 222.352 23.1695 222.845 22.2782C223.357 21.368 223.613 20.3535 223.613 19.2347C223.613 18.0969 223.357 17.0824 222.845 16.1911C222.352 15.2999 221.67 14.5982 220.797 14.0862C219.944 13.5553 218.967 13.2898 217.867 13.2898C216.787 13.2898 215.81 13.5553 214.938 14.0862C214.065 14.5982 213.373 15.2999 212.861 16.1911C212.349 17.0824 212.093 18.0969 212.093 19.2347C212.093 20.3535 212.349 21.368 212.861 22.2782C213.373 23.1695 214.065 23.8711 214.938 24.3831C215.81 24.8951 216.787 25.1511 217.867 25.1511ZM224.666 27C224.343 27 224.078 26.9052 223.869 26.7156C223.661 26.507 223.556 26.2415 223.556 25.9191V21.0551L224.097 18.808L225.775 19.2347V25.9191C225.775 26.2415 225.671 26.507 225.462 26.7156C225.254 26.9052 224.988 27 224.666 27Z" fill="black"/>
<path d="M43 2.15802H1V32H43V2.15802Z" fill="white" stroke="#020202" stroke-width="1.7" stroke-linecap="round" stroke-linejoin="round"/>
<path d="M36.474 6.77351C37.2727 6.77351 37.9202 6.19923 37.9202 5.49082C37.9202 4.78241 37.2727 4.20813 36.474 4.20813C35.6752 4.20813 35.0277 4.78241 35.0277 5.49082C35.0277 6.19923 35.6752 6.77351 36.474 6.77351Z" fill="#020202"/>
<path d="M36.5835 0H36.3644C35.7568 0 35.2642 0.43688 35.2642 0.975798V5.09339C35.2642 5.63231 35.7568 6.06919 36.3644 6.06919H36.5835C37.1911 6.06919 37.6837 5.63231 37.6837 5.09339V0.975798C37.6837 0.43688 37.1911 0 36.5835 0Z" fill="#2596BE"/>
<path d="M29.2368 6.77351C30.0355 6.77351 30.683 6.19923 30.683 5.49082C30.683 4.78241 30.0355 4.20813 29.2368 4.20813C28.438 4.20813 27.7905 4.78241 27.7905 5.49082C27.7905 6.19923 28.438 6.77351 29.2368 6.77351Z" fill="#020202"/>
<path d="M29.3464 0H29.1273C28.5197 0 28.0271 0.43688 28.0271 0.975798V5.09339C28.0271 5.63231 28.5197 6.06919 29.1273 6.06919H29.3464C29.9541 6.06919 30.4467 5.63231 30.4467 5.09339V0.975798C30.4467 0.43688 29.9541 0 29.3464 0Z" fill="#2596BE"/>
<path d="M21.9997 6.77351C22.7985 6.77351 23.446 6.19923 23.446 5.49082C23.446 4.78241 22.7985 4.20813 21.9997 4.20813C21.201 4.20813 20.5535 4.78241 20.5535 5.49082C20.5535 6.19923 21.201 6.77351 21.9997 6.77351Z" fill="#020202"/>
<path d="M22.1092 0H21.8901C21.2825 0 20.7899 0.43688 20.7899 0.975798V5.09339C20.7899 5.63231 21.2825 6.06919 21.8901 6.06919H22.1092C22.7169 6.06919 23.2095 5.63231 23.2095 5.09339V0.975798C23.2095 0.43688 22.7169 0 22.1092 0Z" fill="#2596BE"/>
<path d="M14.7627 6.77351C15.5614 6.77351 16.2089 6.19923 16.2089 5.49082C16.2089 4.78241 15.5614 4.20813 14.7627 4.20813C13.9639 4.20813 13.3164 4.78241 13.3164 5.49082C13.3164 6.19923 13.9639 6.77351 14.7627 6.77351Z" fill="#020202"/>
<path d="M14.8722 0H14.6531C14.0454 0 13.5529 0.43688 13.5529 0.975798V5.09339C13.5529 5.63231 14.0454 6.06919 14.6531 6.06919H14.8722C15.4798 6.06919 15.9724 5.63231 15.9724 5.09339V0.975798C15.9724 0.43688 15.4798 0 14.8722 0Z" fill="#2596BE"/>
<path d="M7.52548 6.77351C8.32423 6.77351 8.97174 6.19923 8.97174 5.49082C8.97174 4.78241 8.32423 4.20813 7.52548 4.20813C6.72674 4.20813 6.07922 4.78241 6.07922 5.49082C6.07922 6.19923 6.72674 6.77351 7.52548 6.77351Z" fill="#020202"/>
<path d="M7.63513 0H7.41603C6.80839 0 6.3158 0.43688 6.3158 0.975798V5.09339C6.3158 5.63231 6.80839 6.06919 7.41603 6.06919H7.63513C8.24277 6.06919 8.73536 5.63231 8.73536 5.09339V0.975798C8.73536 0.43688 8.24277 0 7.63513 0Z" fill="#2596BE"/>
<path d="M38.073 9.80518H33.4903C33.3408 9.80518 33.2196 9.91267 33.2196 10.0453V14.1096C33.2196 14.2422 33.3408 14.3497 33.4903 14.3497H38.073C38.2225 14.3497 38.3437 14.2422 38.3437 14.1096V10.0453C38.3437 9.91267 38.2225 9.80518 38.073 9.80518Z" fill="#D5D3E0"/>
<path d="M31.1818 9.80518H26.5992C26.4497 9.80518 26.3285 9.91267 26.3285 10.0453V14.1096C26.3285 14.2422 26.4497 14.3497 26.5992 14.3497H31.1818C31.3313 14.3497 31.4525 14.2422 31.4525 14.1096V10.0453C31.4525 9.91267 31.3313 9.80518 31.1818 9.80518Z" fill="#D5D3E0"/>
<path d="M24.2908 9.80518H19.7082C19.5587 9.80518 19.4375 9.91267 19.4375 10.0453V14.1096C19.4375 14.2422 19.5587 14.3497 19.7082 14.3497H24.2908C24.4404 14.3497 24.5616 14.2422 24.5616 14.1096V10.0453C24.5616 9.91267 24.4404 9.80518 24.2908 9.80518Z" fill="#D5D3E0"/>
<path d="M17.4002 9.80518H12.8176C12.6681 9.80518 12.5469 9.91267 12.5469 10.0453V14.1096C12.5469 14.2422 12.6681 14.3497 12.8176 14.3497H17.4002C17.5497 14.3497 17.6709 14.2422 17.6709 14.1096V10.0453C17.6709 9.91267 17.5497 9.80518 17.4002 9.80518Z" fill="#D5D3E0"/>
<path d="M10.5092 9.80518H5.9266C5.77709 9.80518 5.65588 9.91267 5.65588 10.0453V14.1096C5.65588 14.2422 5.77709 14.3497 5.9266 14.3497H10.5092C10.6587 14.3497 10.7799 14.2422 10.7799 14.1096V10.0453C10.7799 9.91267 10.6587 9.80518 10.5092 9.80518Z" fill="#D5D3E0"/>
<path d="M38.073 16.5988H33.4903C33.3408 16.5988 33.2196 16.7063 33.2196 16.8389V20.9032C33.2196 21.0358 33.3408 21.1433 33.4903 21.1433H38.073C38.2225 21.1433 38.3437 21.0358 38.3437 20.9032V16.8389C38.3437 16.7063 38.2225 16.5988 38.073 16.5988Z" fill="#D5D3E0"/>
<path d="M31.1818 16.5988H26.5992C26.4497 16.5988 26.3285 16.7063 26.3285 16.8389V20.9032C26.3285 21.0358 26.4497 21.1433 26.5992 21.1433H31.1818C31.3313 21.1433 31.4525 21.0358 31.4525 20.9032V16.8389C31.4525 16.7063 31.3313 16.5988 31.1818 16.5988Z" fill="#D5D3E0"/>
<path d="M24.2908 16.5988H19.7082C19.5587 16.5988 19.4375 16.7063 19.4375 16.8389V20.9032C19.4375 21.0358 19.5587 21.1433 19.7082 21.1433H24.2908C24.4404 21.1433 24.5616 21.0358 24.5616 20.9032V16.8389C24.5616 16.7063 24.4404 16.5988 24.2908 16.5988Z" fill="#D5D3E0"/>
<path d="M22.1135 17.7606H21.8865C21.2576 17.7606 20.7478 18.2128 20.7478 18.7705V18.9718C20.7478 19.5296 21.2576 19.9817 21.8865 19.9817H22.1135C22.7424 19.9817 23.2522 19.5296 23.2522 18.9718V18.7705C23.2522 18.2128 22.7424 17.7606 22.1135 17.7606Z" fill="#2596BE"/>
<path d="M17.4002 16.5988H12.8176C12.6681 16.5988 12.5469 16.7063 12.5469 16.8389V20.9032C12.5469 21.0358 12.6681 21.1433 12.8176 21.1433H17.4002C17.5497 21.1433 17.6709 21.0358 17.6709 20.9032V16.8389C17.6709 16.7063 17.5497 16.5988 17.4002 16.5988Z" fill="#D5D3E0"/>
<path d="M10.5092 16.5988H5.9266C5.77709 16.5988 5.65588 16.7063 5.65588 16.8389V20.9032C5.65588 21.0358 5.77709 21.1433 5.9266 21.1433H10.5092C10.6587 21.1433 10.7799 21.0358 10.7799 20.9032V16.8389C10.7799 16.7063 10.6587 16.5988 10.5092 16.5988Z" fill="#D5D3E0"/>
<path d="M38.073 23.3925H33.4903C33.3408 23.3925 33.2196 23.5 33.2196 23.6326V27.6969C33.2196 27.8295 33.3408 27.937 33.4903 27.937H38.073C38.2225 27.937 38.3437 27.8295 38.3437 27.6969V23.6326C38.3437 23.5 38.2225 23.3925 38.073 23.3925Z" fill="#D5D3E0"/>
<path d="M31.1818 23.3925H26.5992C26.4497 23.3925 26.3285 23.5 26.3285 23.6326V27.6969C26.3285 27.8295 26.4497 27.937 26.5992 27.937H31.1818C31.3313 27.937 31.4525 27.8295 31.4525 27.6969V23.6326C31.4525 23.5 31.3313 23.3925 31.1818 23.3925Z" fill="#D5D3E0"/>
<path d="M24.2908 23.3925H19.7082C19.5587 23.3925 19.4375 23.5 19.4375 23.6326V27.6969C19.4375 27.8295 19.5587 27.937 19.7082 27.937H24.2908C24.4404 27.937 24.5616 27.8295 24.5616 27.6969V23.6326C24.5616 23.5 24.4404 23.3925 24.2908 23.3925Z" fill="#D5D3E0"/>
<path d="M17.4002 23.3925H12.8176C12.6681 23.3925 12.5469 23.5 12.5469 23.6326V27.6969C12.5469 27.8295 12.6681 27.937 12.8176 27.937H17.4002C17.5497 27.937 17.6709 27.8295 17.6709 27.6969V23.6326C17.6709 23.5 17.5497 23.3925 17.4002 23.3925Z" fill="#D5D3E0"/>
<path d="M10.5092 23.3925H5.9266C5.77709 23.3925 5.65588 23.5 5.65588 23.6326V27.6969C5.65588 27.8295 5.77709 27.937 5.9266 27.937H10.5092C10.6587 27.937 10.7799 27.8295 10.7799 27.6969V23.6326C10.7799 23.5 10.6587 23.3925 10.5092 23.3925Z" fill="#D5D3E0"/>
<path d="M13.4122 25.4688C14.0052 25.6701 14.5261 25.9864 15.0181 26.332C15.086 26.3806 15.1176 26.4058 15.185 26.4553L14.504 26.4885C15.1065 25.6897 15.8276 24.9765 16.803 24.5215L16.8146 24.5164C16.8388 24.5051 16.8667 24.5332 16.8488 24.5528C16.5786 24.8849 16.1715 25.3604 15.8876 25.6916C15.6021 26.0256 15.2019 26.4969 14.9117 26.8202C14.8927 26.8426 14.8543 26.8449 14.8321 26.8248L14.0985 26.1676C13.8825 25.9789 13.5855 25.6996 13.3717 25.5043C13.3516 25.4866 13.3743 25.4548 13.4011 25.4641L13.4122 25.4679V25.4688Z" fill="#2596BE"/>
</svg>
