<svg width="367" height="319" viewBox="0 0 367 319" fill="none" xmlns="http://www.w3.org/2000/svg">
<path d="M183.946 165.866C187.255 165.866 189.938 161.855 189.938 156.907C189.938 151.959 187.255 147.948 183.946 147.948C180.637 147.948 177.955 151.959 177.955 156.907C177.955 161.855 180.637 165.866 183.946 165.866Z" fill="#020202"/>
<path d="M186.035 148.508C177.677 141.859 173.199 149.233 173.199 149.233L181.854 165.297L186.035 148.503V148.508Z" fill="#020202"/>
<path d="M214.852 220.361C204.528 214.327 199.43 196.923 203.465 181.487C207.501 166.051 219.141 158.427 229.465 164.461C239.788 170.495 244.887 187.9 240.851 203.336C240.063 206.353 238.982 209.074 237.678 211.449C232.314 221.23 223.158 225.212 214.852 220.361Z" fill="#020202"/>
<path d="M243.493 202.666C241.445 205.725 238.982 209.074 237.678 211.449C232.313 221.23 223.158 225.213 214.852 220.361" fill="#020202"/>
<path d="M243.493 202.666C241.445 205.725 238.982 209.074 237.678 211.449C232.314 221.23 223.158 225.213 214.852 220.361" stroke="#020202" stroke-width="1.7" stroke-miterlimit="10"/>
<path d="M202.406 159.947C193.303 155.595 187.556 149.755 187.556 149.755L178.496 160.982C178.496 160.982 180.411 172.006 189.793 188.44C191.971 184.065 201.794 165.94 202.406 159.952V159.947Z" fill="#020202"/>
<path d="M219.023 190.579C222.293 174.699 215.454 163.981 215.454 163.981C210.513 163.047 205.996 161.518 202.405 159.947C202.071 162.863 191.408 188.75 190.799 189.979C195.233 197.468 202.365 207.933 209.633 215.866C209.633 215.866 215.757 206.459 219.026 190.579H219.023Z" fill="#020202"/>
<path d="M219.691 162.627L229.999 158.09" stroke="#020202" stroke-width="1.7" stroke-miterlimit="10"/>
<path d="M177.438 164.281L169.348 155.225C168.622 154.412 168.362 153.095 168.767 152.282C170.198 149.427 173.068 147.939 177.15 146.105L181.853 165.297C181.853 165.297 181.384 165.501 180.392 165.81C179.363 166.129 178.563 165.538 177.435 164.281H177.438Z" fill="#020202"/>
<path d="M198.774 194.58C205.328 194.58 210.64 186.637 210.64 176.839C210.64 167.04 205.328 159.097 198.774 159.097C192.221 159.097 186.909 167.04 186.909 176.839C186.909 186.637 192.221 194.58 198.774 194.58Z" fill="#020202"/>
<path d="M351.066 313.25H317.672V303.756H341.419C345.331 303.756 349.091 306.006 351.925 310.039C352.737 311.199 352.19 313.25 351.066 313.25Z" fill="#020202"/>
<path d="M317.546 313.25C319.298 313.25 320.719 311.126 320.719 308.505C320.719 305.885 319.298 303.761 317.546 303.761C315.793 303.761 314.372 305.885 314.372 308.505C314.372 311.126 315.793 313.25 317.546 313.25Z" fill="#020202"/>
<path d="M224.494 315.135C230.354 315.135 235.105 308.032 235.105 299.27C235.105 290.507 230.354 283.404 224.494 283.404C218.633 283.404 213.883 290.507 213.883 299.27C213.883 308.032 218.633 315.135 224.494 315.135Z" fill="#020202"/>
<path d="M229.786 315.112L212.76 315.186C211.23 315.191 209.988 313.814 209.985 312.105C209.973 306.094 212.682 303.922 213.881 301.284L235.091 299.912C235.091 299.912 234.937 306.44 234.665 310.39C234.483 313.024 232.153 315.108 229.783 315.117L229.786 315.112Z" fill="#020202"/>
<path d="M217.646 315.168C217.507 312.077 217.089 308.944 216.162 306.163C215.575 304.394 214.747 302.869 213.978 301.279H213.885C212.686 303.922 209.976 306.098 209.989 312.109C209.992 313.819 211.234 315.196 212.763 315.191L217.649 315.172L217.646 315.168Z" fill="#020202"/>
<path d="M237.907 18.8692C237.907 18.8692 249.495 -3.52961 260.634 0.480732C270.152 3.90431 264.71 38.0523 264.71 38.0523L237.907 18.8692Z" fill="#020202"/>
<path d="M250.097 54.847C258.447 54.847 265.217 44.7257 265.217 32.2403C265.217 19.755 258.447 9.63364 250.097 9.63364C241.747 9.63364 234.978 19.755 234.978 32.2403C234.978 44.7257 241.747 54.847 250.097 54.847Z" fill="#020202"/>
<path d="M243.086 212.257C276.51 212.257 303.607 171.743 303.607 121.766C303.607 71.7887 276.51 31.2744 243.086 31.2744C209.661 31.2744 182.564 71.7887 182.564 121.766C182.564 171.743 209.661 212.257 243.086 212.257Z" fill="#EFE4B5" stroke="#EFE4B5" stroke-width="1.7" stroke-miterlimit="10"/>
<path d="M185.562 149.88L295.292 75.9012C295.292 75.9012 272.154 13.5931 231.557 16.453C197.898 18.8232 181.156 31.5703 173.879 38.7686C166.701 45.8653 155.96 64.6464 166.182 93.1023C176.403 121.558 185.562 149.88 185.562 149.88Z" fill="#EFE4B5" stroke="#EFE4B5" stroke-width="1.7" stroke-miterlimit="10"/>
<path d="M183.415 143.319C185.448 142.783 193.059 138.242 198.485 134.596C207.449 128.576 217.831 121.068 222.658 116.808C228.031 112.064 231.291 108.113 232.982 100.471C234.242 94.7655 233.386 86.9019 229.425 81.5101C221.62 70.8836 207.918 72.6901 205.879 72.2096C200.954 71.0499 198.16 65.1592 195.444 59.4902C193.911 56.2976 192.196 53.2344 189.857 51.317C187.546 49.4274 184.95 48.8175 182.42 47.9166C178.721 46.5952 175.211 44.1003 172.393 40.3533C165.353 48.4294 156.646 66.5498 166.182 93.0976C172.315 110.178 179.796 132.429 183.415 143.315V143.319Z" fill="white"/>
<path d="M172.393 40.3577C165.353 48.4338 156.646 66.5542 166.182 93.102C172.315 110.183 179.796 132.434 183.415 143.319" stroke="#020202" stroke-width="1.7" stroke-miterlimit="10"/>
<path d="M210.643 65.1361C215.652 65.1361 219.713 59.0649 219.713 51.5758C219.713 44.0866 215.652 38.0155 210.643 38.0155C205.635 38.0155 201.574 44.0866 201.574 51.5758C201.574 59.0649 205.635 65.1361 210.643 65.1361Z" fill="#020202"/>
<path d="M213.626 49.2286C214.916 49.2286 215.962 47.6648 215.962 45.7357C215.962 43.8067 214.916 42.2429 213.626 42.2429C212.335 42.2429 211.29 43.8067 211.29 45.7357C211.29 47.6648 212.335 49.2286 213.626 49.2286Z" fill="white"/>
<path d="M174.274 45.7865C173.801 45.8743 173.31 45.611 172.985 45.0242L170.813 41.097C170.309 40.1822 170.399 38.8377 171.014 38.0846C171.629 37.3315 172.537 37.4655 173.041 38.3757L175.213 42.3029C175.717 43.2177 175.627 44.5622 175.012 45.3153C174.793 45.5832 174.536 45.7403 174.274 45.7865Z" fill="#020202"/>
<path d="M261.162 40.9398C261.162 40.9398 268.485 33.6584 275.71 30.3826C283.41 26.8898 291.117 27.4904 293.851 33.2148C296.141 38.0106 294.646 53.9642 286.074 67.9311C279.742 78.2434 274.248 80.7891 274.248 80.7891" fill="#EFE4B5"/>
<path d="M261.162 40.9398C261.162 40.9398 268.485 33.6584 275.71 30.3826C283.41 26.8898 291.117 27.4904 293.851 33.2148C296.141 38.0106 294.646 53.9642 286.074 67.9311C279.742 78.2434 274.248 80.7891 274.248 80.7891" stroke="#020202" stroke-width="1.7" stroke-miterlimit="10"/>
<path d="M267.516 59.7629C273.551 52.7817 279.765 46.6969 279.765 46.6969" stroke="#020202" stroke-width="1.7" stroke-miterlimit="10"/>
<path d="M143.569 63.2972C146.939 63.2972 149.672 57.2033 149.672 49.686C149.672 42.1688 146.939 36.0749 143.569 36.0749C140.198 36.0749 137.466 42.1688 137.466 49.686C137.466 57.2033 140.198 63.2972 143.569 63.2972Z" fill="#020202"/>
<path d="M143.568 63.2924L108.184 67.774V31.5931L143.568 36.0747V63.2924Z" fill="#020202"/>
<path d="M129.644 72.7825C135.462 72.7825 140.178 62.2681 140.178 49.2979C140.178 36.3278 135.462 25.8134 129.644 25.8134C123.827 25.8134 119.111 36.3278 119.111 49.2979C119.111 62.2681 123.827 72.7825 129.644 72.7825Z" fill="#2596BE"/>
<path d="M129.644 72.7824L68.5886 80.5212V18.0791L129.644 25.8133V72.7824Z" fill="#2596BE"/>
<path d="M97.2681 79.7865C104.82 79.7865 110.941 66.1362 110.941 49.2977C110.941 32.4593 104.82 18.809 97.2681 18.809C89.7165 18.809 83.5947 32.4593 83.5947 49.2977C83.5947 66.1362 89.7165 79.7865 97.2681 79.7865Z" fill="#2596BE"/>
<path d="M97.2681 18.8138C104.82 18.8138 110.941 32.4619 110.941 49.3026C110.941 66.1432 104.82 79.7913 97.2681 79.7913" stroke="#020202" stroke-width="1.7" stroke-linecap="round" stroke-linejoin="round"/>
<path d="M97.268 79.7867L18.009 89.8264V8.76944L97.268 18.8138V79.7867Z" fill="#2596BE"/>
<path d="M18.0086 89.8264C27.9545 89.8264 36.0173 71.6812 36.0173 49.2979C36.0173 26.9147 27.9545 8.76944 18.0086 8.76944C8.06273 8.76944 0 26.9147 0 49.2979C0 71.6812 8.06273 89.8264 18.0086 89.8264Z" fill="#2596BE"/>
<path d="M45.6768 12.3826C54.7367 12.3826 62.0786 28.9091 62.0786 49.298C62.0786 69.687 54.7336 86.2135 45.6768 86.2135" stroke="#020202" stroke-width="1.7" stroke-linecap="round" stroke-linejoin="round"/>
<path d="M18.0091 83.5106C25.902 83.5106 32.3004 68.193 32.3004 49.2979C32.3004 30.4028 25.902 15.0853 18.0091 15.0853C10.1162 15.0853 3.71777 30.4028 3.71777 49.2979C3.71777 68.193 10.1162 83.5106 18.0091 83.5106Z" fill="#020202"/>
<path d="M20.3294 46.4749C23.4114 46.4749 25.9099 42.7392 25.9099 38.1308C25.9099 33.5225 23.4114 29.7867 20.3294 29.7867C17.2473 29.7867 14.7488 33.5225 14.7488 38.1308C14.7488 42.7392 17.2473 46.4749 20.3294 46.4749Z" fill="white"/>
<path d="M187.35 63.2972C190.721 63.2972 193.453 57.2033 193.453 49.686C193.453 42.1688 190.721 36.0749 187.35 36.0749C183.98 36.0749 181.248 42.1688 181.248 49.686C181.248 57.2033 183.98 63.2972 187.35 63.2972Z" fill="#020202"/>
<path d="M187.351 63.2924L151.967 67.774V31.5931L187.351 36.0747V63.2924Z" fill="#020202"/>
<path d="M173.427 72.7825C179.245 72.7825 183.961 62.2681 183.961 49.2979C183.961 36.3278 179.245 25.8134 173.427 25.8134C167.61 25.8134 162.894 36.3278 162.894 49.2979C162.894 62.2681 167.61 72.7825 173.427 72.7825Z" fill="#2596BE"/>
<path d="M173.428 72.7824L112.372 80.5212V18.0791L173.428 25.8133V72.7824Z" fill="#2596BE"/>
<path d="M141.05 79.7865C148.601 79.7865 154.723 66.1362 154.723 49.2977C154.723 32.4593 148.601 18.809 141.05 18.809C133.498 18.809 127.376 32.4593 127.376 49.2977C127.376 66.1362 133.498 79.7865 141.05 79.7865Z" fill="#2596BE"/>
<path d="M141.05 18.8138C148.602 18.8138 154.723 32.4619 154.723 49.3026C154.723 66.1432 148.602 79.7913 141.05 79.7913" stroke="#020202" stroke-width="1.7" stroke-linecap="round" stroke-linejoin="round"/>
<path d="M141.05 79.7867L61.7908 89.8264V8.76944L141.05 18.8138V79.7867Z" fill="#2596BE"/>
<path d="M61.7916 89.8264C71.7375 89.8264 79.8002 71.6812 79.8002 49.2979C79.8002 26.9147 71.7375 8.76944 61.7916 8.76944C51.8457 8.76944 43.783 26.9147 43.783 49.2979C43.783 71.6812 51.8457 89.8264 61.7916 89.8264Z" fill="#2596BE"/>
<path d="M89.4597 12.3826C98.5197 12.3826 105.862 28.9091 105.862 49.298C105.862 69.687 98.5166 86.2135 89.4597 86.2135" stroke="#020202" stroke-width="1.7" stroke-linecap="round" stroke-linejoin="round"/>
<path d="M61.7908 83.5106C69.6837 83.5106 76.0822 68.193 76.0822 49.2979C76.0822 30.4028 69.6837 15.0853 61.7908 15.0853C53.898 15.0853 47.4995 30.4028 47.4995 49.2979C47.4995 68.193 53.898 83.5106 61.7908 83.5106Z" fill="#020202"/>
<path d="M64.6336 44.271C67.7156 44.271 70.2141 40.5352 70.2141 35.9269C70.2141 31.3186 67.7156 27.5828 64.6336 27.5828C61.5515 27.5828 59.053 31.3186 59.053 35.9269C59.053 40.5352 61.5515 44.271 64.6336 44.271Z" fill="white"/>
<path d="M199.306 232.614C199.306 261.333 199.161 298.489 232.981 310.081C266.801 321.673 332.884 326.085 354.209 283.399C375.533 240.713 363.88 198.947 348.745 162.244C328.657 113.528 295.291 75.9012 295.291 75.9012L185.562 149.88C185.562 149.88 199.306 203.895 199.306 232.619V232.614Z" fill="#EFE4B5" stroke="#EFE4B5" stroke-width="1.7" stroke-miterlimit="10"/>
<path d="M249.39 297.533C248.151 293.966 247.109 290.242 246.198 286.463C245.221 282.411 244.313 278.28 243.778 274.043C242.691 265.408 242.972 256.621 243.145 247.888C243.321 239.096 243.312 230.179 241.485 221.72C239.706 213.486 236.263 205.983 232.855 199.071C229.53 192.33 225.909 185.936 222.55 179.232C220.906 175.952 219.268 172.667 217.646 169.359C216.008 166.014 214.247 162.927 212.18 160.155C205.258 150.878 195.24 150.688 187.049 155.992C190.608 170.939 199.301 209.776 199.301 232.614C199.301 261.333 199.155 298.489 232.976 310.081C240.441 312.641 249.01 314.119 258.057 314.415C254.575 309.49 251.615 303.955 249.384 297.533H249.39Z" fill="white" stroke="white" stroke-width="1.7" stroke-miterlimit="10"/>
<path d="M189.753 169.026C193.18 186.093 199.307 218.296 199.307 232.614C199.307 261.333 199.162 298.489 232.982 310.081C232.982 310.081 235.346 310.917 238.195 311.573" stroke="#020202" stroke-width="1.7" stroke-miterlimit="10"/>
<path d="M249.481 317.122C255.342 317.122 260.093 310.019 260.093 301.256C260.093 292.494 255.342 285.391 249.481 285.391C243.621 285.391 238.87 292.494 238.87 301.256C238.87 310.019 243.621 317.122 249.481 317.122Z" fill="#EFE4B5"/>
<path d="M238.87 301.298C238.855 292.533 243.592 285.409 249.454 285.386H258.063" stroke="#020202" stroke-width="1.7" stroke-miterlimit="10"/>
<path d="M254.779 317.099L237.753 317.173C236.223 317.178 234.981 315.801 234.978 314.091C234.965 308.081 237.675 305.909 238.874 303.271L260.084 301.899C260.084 301.899 259.93 308.427 259.658 312.377C259.475 315.011 257.146 317.095 254.776 317.104L254.779 317.099Z" fill="#EFE4B5"/>
<path d="M196.869 164.147C194.026 164.951 190.726 165.644 188.754 166.513C180.64 170.08 171.571 165.667 166.534 154.662" stroke="#020202" stroke-width="1.7" stroke-miterlimit="10"/>
<path d="M166.534 154.662C160.273 140.986 162.612 122.311 171.759 112.95C180.905 103.59 193.395 107.087 199.655 120.763C205.916 134.439 203.577 153.114 194.43 162.475C192.641 164.304 190.725 165.644 188.754 166.513C180.639 170.079 171.57 165.667 166.534 154.662Z" fill="#EFE4B5"/>
<path d="M181.196 133.561C189.876 123.189 188.26 108.571 188.26 108.571C184.527 103.641 181.369 98.5724 178.993 94.2572C177.621 96.3871 159.056 108.806 158.092 109.305C158.938 119.229 160.891 133.88 163.91 146.553C163.91 146.553 172.513 143.934 181.193 133.561H181.196Z" fill="#EFE4B5"/>
<path d="M188.358 108.857L250.301 124.501L245.128 182.646L178.962 167.062L188.358 108.857Z" fill="#EFE4B5" stroke="#EFE4B5" stroke-width="1.7" stroke-miterlimit="10"/>
<path d="M247.693 183.016C258.84 183.016 267.877 169.504 267.877 152.837C267.877 136.169 258.84 122.658 247.693 122.658C236.545 122.658 227.509 136.169 227.509 152.837C227.509 169.504 236.545 183.016 247.693 183.016Z" fill="#EFE4B5" stroke="#EFE4B5" stroke-width="1.7" stroke-miterlimit="10"/>
<path d="M178.993 94.2573C173.109 82.9978 170.557 73.3323 170.557 73.3323L158.843 74.9818C158.843 74.9818 156.275 85.7052 157.841 107.185C161.287 105.401 176.23 98.688 178.99 94.2573H178.993Z" fill="#EFE4B5"/>
<path d="M169.633 122.902C176.186 122.902 181.499 114.959 181.499 105.161C181.499 95.3623 176.186 87.4192 169.633 87.4192C163.08 87.4192 157.767 95.3623 157.767 105.161C157.767 114.959 163.08 122.902 169.633 122.902Z" fill="#EFE4B5"/>
<path d="M164.88 85.1599C168.189 85.1599 170.872 81.149 170.872 76.2013C170.872 71.2536 168.189 67.2427 164.88 67.2427C161.571 67.2427 158.888 71.2536 158.888 76.2013C158.888 81.149 161.571 85.1599 164.88 85.1599Z" fill="#EFE4B5"/>
<path d="M169.769 71.0175C165.366 58.4875 158.886 60.8161 158.886 60.8161L159.989 81.3806L169.766 71.0221L169.769 71.0175Z" fill="#EFE4B5"/>
<path d="M156.726 76.8204L153.448 62.5255C153.154 61.2411 153.435 59.9335 154.075 59.6055C156.331 58.4505 161.102 60.1461 163.982 61.9757L159.992 81.3806C159.992 81.3806 159.529 81.1542 158.593 80.572C157.622 79.9714 157.183 78.8071 156.726 76.8204Z" fill="#EFE4B5"/>
<path d="M156.726 62.0357C156.726 62.0357 155.879 61.5876 154.937 61.8325C154.201 62.0219 153.75 62.4654 153.75 62.4654" fill="#2596BE"/>
<path d="M156.726 62.0357C156.726 62.0357 155.879 61.5876 154.937 61.8325C154.201 62.0219 153.75 62.4654 153.75 62.4654" stroke="#020202" stroke-width="1.7" stroke-miterlimit="10"/>
<path d="M156.88 66.0183C156.88 66.0183 156.281 65.7827 155.53 66.1246C154.779 66.4665 154.562 66.8222 154.562 66.8222" fill="#2596BE"/>
<path d="M156.88 66.0183C156.88 66.0183 156.281 65.7827 155.53 66.1246C154.779 66.4665 154.562 66.8222 154.562 66.8222" stroke="#020202" stroke-width="1.7" stroke-miterlimit="10"/>
<path d="M148.052 316.803H366" stroke="#020202" stroke-width="1.7" stroke-miterlimit="10" stroke-linecap="round"/>
<path d="M181.468 290.473L173.789 267.436L166.107 290.473L153.225 289.295L165.233 316.415H182.342L194.35 289.295L181.468 290.473Z" fill="#00AB55"/>
</svg>
