<svg width="348" height="315" viewBox="0 0 348 315" fill="none" xmlns="http://www.w3.org/2000/svg">
<path d="M133 105.877C133 105.877 133 113.575 134.523 115.569C136.046 117.565 154.191 121.27 170.703 120.984C187.215 120.699 203.359 119.004 205.188 113.439C207.016 107.87 205.188 101 205.188 101L133 105.877Z" fill="#2596BE" stroke="#2596BE" stroke-width="1.7" stroke-linejoin="round"/>
<path d="M228 55.0016C228 56.2456 227.955 57.477 227.866 58.6988C225.806 86.7977 200.464 109 169.5 109C138.536 109 111 84.8237 111 55.0016C111 40.089 117.55 26.5917 128.136 16.8171C129.019 16.0015 129.927 15.2145 130.866 14.4528C141.166 5.92222 155.95 2.43128 169.503 1C170.401 1 171.295 1.01904 172.182 1.05712C176.62 1.24119 180.928 1.88225 185.054 2.92953C186.292 3.24371 187.512 3.59599 188.716 3.97999C211.989 9.09263 224.366 30.9903 227.814 51.2092C227.945 52.504 228 53.7575 228 54.9984V55.0016Z" fill="#2596BE" stroke="#2596BE" stroke-width="1.7" stroke-linejoin="round"/>
<path d="M69.0035 96.9247C69.0035 96.9247 69.2593 97.0212 69.757 97.1949C70.2548 97.3718 70.9945 97.626 71.9831 97.9541C82.2944 101.335 93.0723 104.066 104.12 106.231C105.35 106.473 106.581 106.707 107.832 106.942C131.787 112.237 157.301 113.862 182.586 112.588C183.945 112.508 185.303 112.417 186.69 112.308C201.232 110.378 215.059 109.284 230.268 107.531C235.453 106.875 239.947 105.34 244.617 104.092C245.837 103.793 247.05 103.487 248.26 103.175C254.309 101.609 260.241 99.8489 266.051 97.9058C267.98 97.2882 269 96.9247 269 96.9247L266 96.8056C254.814 96.3617 243.752 96.8024 232.961 95.506C232.124 95.4642 231.26 95.4288 230.389 95.3934C202.573 94.2932 169.921 93 169.921 93C169.921 93 126.775 94.676 96.9058 95.8406C96.0278 95.8759 95.1636 95.9081 94.3202 95.9435C86.4701 96.3617 78.5197 96.5804 70.7007 96.8571C69.598 96.8989 69 96.9247 69 96.9247H69.0035Z" fill="white" stroke="#2596BE" stroke-width="1.7" stroke-linecap="round" stroke-linejoin="round"/>
<path d="M269 97H69L111.103 64H226.897L269 97Z" fill="#2596BE" stroke="#2596BE" stroke-width="1.7" stroke-linejoin="round"/>
<path d="M153 59.9968C153 59.9968 153.593 55.5708 158.474 53.0821C163.358 50.5934 165.725 51.2833 161.879 47.6889C158.033 44.0944 154.776 45.0616 154.776 38.8367C154.776 32.6118 160.564 24.7299 169.288 25.0071C178.011 25.2843 184.669 34.6878 183.634 40.3582C182.599 46.0287 175.493 47.1344 175.493 49.0718C175.493 51.0092 181.476 53.0065 183.738 55.1896C186 57.3727 186 60 186 60H153V59.9968Z" fill="#EFE4B5" stroke="#2596BE" stroke-width="1.7" stroke-linecap="round" stroke-linejoin="round"/>
<path d="M226.176 58H111.824C109.712 58 108 59.567 108 61.5C108 63.433 109.712 65 111.824 65H226.176C228.288 65 230 63.433 230 61.5C230 59.567 228.288 58 226.176 58Z" fill="white" stroke="#2596BE" stroke-width="1.7" stroke-linecap="round" stroke-linejoin="round"/>
<path d="M134.989 80.7989C135.301 86.9621 128.719 92.5763 121.791 91.9525C117.634 91.3287 114.516 89.1454 112.448 85.9203C111.904 85.0033 111.499 84.0177 111.256 82.9853C111.014 81.9529 110.938 80.88 111.052 79.7883C111.631 74.851 116.054 70.7775 121.524 70.1007C122.619 69.9635 123.755 69.9635 124.909 70.1194C129.066 71.0551 133.569 73.8622 134.619 77.9731C134.882 78.8745 135.014 79.8226 134.993 80.7989H134.989Z" fill="#EFE4B5" stroke="#EFE4B5" stroke-width="1.7" stroke-linecap="round" stroke-linejoin="round"/>
<path d="M179.996 81.1593C179.996 86.1418 176.205 90.3407 171.042 91.5988C170.008 91.8516 168.921 91.9859 167.8 91.9859C163.959 92.1669 160.442 90.606 158.332 87.4842C155.166 83.1136 155.166 77.8065 158.683 73.7481C163.959 67.5044 174.158 69.6897 178.333 75.693C178.86 76.4953 179.279 77.3632 179.564 78.281C179.849 79.1988 180 80.1635 180 81.1593H179.996Z" fill="#EFE4B5" stroke="#EFE4B5" stroke-width="1.7" stroke-linecap="round" stroke-linejoin="round"/>
<path d="M224 81.2887C223.808 87.5572 217.86 92.8223 210.92 91.8932C204.311 91.2738 199.684 85.0796 201.337 79.1951C202.989 73.93 208.276 70.2135 214.225 71.1426C218.521 71.7621 222.817 74.5494 223.59 78.4549C223.858 79.353 224 80.3038 224 81.2887Z" fill="#EFE4B5" stroke="#EFE4B5" stroke-width="1.7" stroke-linecap="round" stroke-linejoin="round"/>
<path d="M163.65 41.9845C164.865 42.1292 165.938 41.2404 165.989 40.0918C166.064 38.3438 165.809 35.7602 163.924 34.2602C160.884 31.839 158.307 33.3951 158.03 34.8655C157.787 36.1588 158.971 41.4265 163.65 41.9845Z" fill="#2596BE" stroke="#2596BE" stroke-width="1.7" stroke-linecap="round" stroke-linejoin="round"/>
<path d="M174.643 41.9845C173.277 42.1292 172.07 41.2404 172.013 40.0918C171.928 38.3438 172.215 35.7602 174.335 34.2602C177.755 31.839 180.655 33.3951 180.967 34.8655C181.239 36.1588 179.908 41.4265 174.643 41.9845Z" fill="#2596BE" stroke="#2596BE" stroke-width="1.7" stroke-linecap="round" stroke-linejoin="round"/>
<path d="M131.003 24.8985C131.275 26.1356 132.669 26.1357 133.366 25.8324C143.82 20.0713 154.274 16.1294 165.076 11.2779C167.167 10.3682 170.303 9.76181 171 7.03284C156.365 6.4264 141.729 14.3101 131.669 23.1884C131.265 23.8069 131.038 24.38 131 24.8985H131.003Z" fill="white" stroke="#2596BE" stroke-width="1.7" stroke-linecap="round" stroke-linejoin="round"/>
<path d="M122.382 37.6274C122.299 38.2078 120.979 41.2462 123.786 43.4242C126.592 45.6021 126.089 41.1362 128.21 37.7942C130.331 34.4489 130.794 31.5438 128.356 31.0368C125.918 30.5299 122.7 35.3861 122.379 37.6274H122.382Z" fill="white" stroke="#2596BE" stroke-width="1.7" stroke-linecap="round" stroke-linejoin="round"/>
<path d="M135 115L40 313" stroke="#2596BE" stroke-width="1.7" stroke-linecap="round" stroke-linejoin="round"/>
<path d="M204 115L299 313" stroke="#2596BE" stroke-width="1.7" stroke-linecap="round" stroke-linejoin="round"/>
<path d="M191.93 282.021C175.867 269.113 155.572 253.566 139.777 240.729C139.122 239.41 140.827 238.489 141.834 237.425C144.211 234.909 146.551 232.361 148.908 229.829C155.799 222.43 162.959 215.409 169.826 208.036C171.659 206.066 173.582 207.626 175.202 208.748C192.13 219.469 206.092 233.625 221.897 245.722C227.341 249.074 188.998 283.549 191.927 282.021H191.93Z" fill="#EFE4B5" stroke="#2596BE" stroke-width="1.7" stroke-linejoin="round"/>
<path d="M220.165 251.739L167.76 210.244C168.456 209.513 169.145 208.776 169.834 208.036C171.667 206.066 173.865 207.27 175.488 208.392C177.132 209.526 178.672 210.549 180.264 211.791C183.183 214.069 186.067 216.385 188.968 218.681C200.177 227.557 210.686 236.834 221.909 245.722C223.128 246.688 223.27 248.385 222.219 249.512C221.915 249.836 221.199 250.621 220.168 251.739H220.165Z" fill="#2596BE" stroke="#2596BE" stroke-width="1.7" stroke-linejoin="round"/>
<path d="M189.515 298.337C189.515 298.337 182.71 292.949 182.338 292.653C170.798 283.517 159.259 274.38 147.719 265.244L131.256 252.21C129.385 250.729 127.51 249.255 125.643 247.765C124.795 247.088 122.866 245.948 123.4 244.75C124.082 243.219 131.232 242.377 132.968 241.942C133.63 241.777 139.226 240.29 139.549 240.547C139.901 240.827 191.596 281.76 191.927 282.021C192.337 282.345 191.369 286.846 191.29 287.358C190.728 291.024 190.056 294.677 189.512 298.34L189.515 298.337Z" fill="white" stroke="#2596BE" stroke-width="1.7" stroke-linejoin="round"/>
<path d="M188.065 299.897C187.748 300.237 187.193 300.275 186.824 299.982C177.173 292.355 167.408 284.937 157.75 277.29C153.574 273.983 126.267 251.863 121.415 248.137C121.019 247.835 120.971 247.292 121.305 246.933C122.146 246.031 123.541 244.534 123.555 244.519C124.217 243.982 146.638 264.25 149.053 266.229C156.94 272.69 165.337 278.59 173.531 284.711C174.71 285.591 189.436 298.423 189.512 298.34L188.061 299.897H188.065Z" fill="#2596BE" stroke="#2596BE" stroke-width="1.7" stroke-linejoin="round"/>
<path d="M132.441 251.253C132.441 251.253 139.371 249.84 141.218 248.95C143.064 248.061 147.826 246.968 147.826 246.968" stroke="#2596BE" stroke-width="1.7" stroke-linecap="round" stroke-linejoin="round"/>
<path d="M153.125 251.323C153.125 251.323 142.72 257.197 141.334 258.137L139.949 259.078" stroke="#2596BE" stroke-width="1.7" stroke-linecap="round" stroke-linejoin="round"/>
<path d="M186.115 277.443C186.115 277.443 184.137 282.307 182.049 285.827C179.961 289.346 179.44 290.817 179.44 290.817" stroke="#2596BE" stroke-width="1.7" stroke-linecap="round" stroke-linejoin="round"/>
<path d="M180.226 272.624C178.768 274.921 177.042 279.511 175.891 281.109C174.74 282.707 173.534 284.708 173.534 284.708" stroke="#2596BE" stroke-width="1.7" stroke-linecap="round" stroke-linejoin="round"/>
<path d="M173.5 267.611C173.5 267.611 170.668 272.112 169.1 274.161C167.529 276.21 164.996 278.752 164.996 278.752" stroke="#2596BE" stroke-width="1.7" stroke-linejoin="round"/>
<path d="M156.31 272.188C156.31 272.188 157.826 269.466 160.5 267.509C161.681 266.642 166.998 261.991 166.998 261.991" stroke="#2596BE" stroke-width="1.7" stroke-linejoin="round"/>
<path d="M159.866 256.501C159.866 256.501 153.55 260.908 152.261 261.927C150.973 262.947 147.093 264.736 147.093 264.736" stroke="#2596BE" stroke-width="1.7" stroke-linejoin="round"/>
<path d="M135.449 241.269C143.932 247.968 152.419 254.672 160.902 261.371C164.538 264.243 168.173 267.115 171.718 270.082C173.748 271.782 175.75 273.516 177.834 275.162C182.286 278.679 187.096 281.786 191.9 284.889" stroke="#2596BE" stroke-width="1.7" stroke-linejoin="round"/>
<path d="M130.043 242.508C150.3 258.373 170.437 274.371 190.453 290.496" stroke="#2596BE" stroke-width="1.7" stroke-linejoin="round"/>
<path d="M203.656 168.508C204.928 173.293 208.482 185.409 208.516 185.508C208.946 186.753 209.186 187.661 208.822 188.064C208.595 188.314 208.241 188.438 207.901 188.553C205.526 189.353 192.154 192.203 188.352 193.335C185.95 194.052 167.742 198.6 164.776 199.224C164.539 199.275 163.814 199.448 162.783 199.697C158.267 200.801 148.214 203.315 147.197 203.615C146.554 203.807 145.022 204.159 144.52 203.919C144.362 203.842 143.888 203.545 143.613 202.585C143.276 201.395 142.465 198.616 142.375 198.29C140.104 190.063 136.162 177.349 133.68 167.578C133.622 167.344 133.563 167.117 133.509 166.893C133.392 166.423 133.282 165.972 133.179 165.54C133.103 165.22 132.735 164.203 133.347 163.848C134.175 163.365 140.451 161.919 142.269 161.43C145.152 160.653 148.008 160 150.892 159.255C151.108 159.201 151.325 159.143 151.541 159.086C155.263 158.104 160.415 156.968 164.147 156.009C170.791 154.301 189.799 149.343 196.542 148.015C196.924 147.939 197.343 148.159 197.594 148.409C197.831 148.646 197.896 148.981 197.969 149.295C197.996 149.407 198.127 149.855 198.34 150.555C198.402 150.763 198.474 150.993 198.549 151.243C199.708 155.023 202.289 163.375 203.653 168.508H203.656Z" fill="white" stroke="#2596BE" stroke-width="1.7" stroke-linecap="round" stroke-linejoin="round"/>
<path d="M198.997 152.655C186.957 156.025 169.776 159.88 159.225 162.639C152.196 164.475 141.336 167.055 134.09 169C134.032 168.766 133.564 167.125 133.509 166.901C133.392 166.431 133.282 165.979 133.179 165.547C133.103 165.227 132.735 164.21 133.347 163.855C134.176 163.371 140.455 161.925 142.275 161.436C145.16 160.658 148.018 160.005 150.903 159.26C151.12 159.205 151.336 159.148 151.553 159.09C155.277 158.108 160.432 156.972 164.167 156.012C170.814 154.303 189.835 149.343 196.582 148.015C196.964 147.939 197.384 148.159 197.635 148.409C197.872 148.646 197.937 148.982 198.01 149.295C198.037 149.407 198.168 149.855 198.381 150.556C198.443 150.764 198.924 152.409 199 152.658L198.997 152.655Z" fill="#2596BE" stroke="#2596BE" stroke-width="1.7" stroke-linecap="round" stroke-linejoin="round"/>
<path d="M143 173C150.615 171.08 156.056 169.904 162.309 168.314C172.615 165.692 182.694 163.623 193 161" stroke="#2596BE" stroke-width="1.7" stroke-linecap="round" stroke-linejoin="round"/>
<path d="M145 179C152.494 176.952 157.847 175.697 164 174" stroke="#2596BE" stroke-width="1.7" stroke-linecap="round" stroke-linejoin="round"/>
<path d="M146 184C153.641 182.015 159.1 180.798 165.374 179.154C175.716 176.442 171.662 177.716 182 175" stroke="#2596BE" stroke-width="1.7" stroke-linecap="round" stroke-linejoin="round"/>
<path d="M150.61 195.536C150.109 193.897 149.672 192.239 149.171 190.599C149.014 190.09 148.884 189.532 149.164 189.107C149.427 188.708 150.068 188.405 150.614 188.285C155.952 187.101 159.509 186.103 163.711 185.138C164.192 185.027 164.7 184.922 165.123 185.081C165.703 185.297 166.15 185.875 166.341 186.445C166.876 188.04 167.402 189.823 167.876 191.43C168.026 191.933 168.081 192.305 167.804 192.725C167.528 193.144 167.115 193.477 166.416 193.729C165.031 194.229 163.217 194.37 160.839 195.042C158.486 195.707 155.805 196.346 153.216 196.897C152.933 196.957 152.377 197.026 152.104 196.99C151.279 196.879 150.842 196.292 150.614 195.542L150.61 195.536Z" fill="#2596BE" stroke="#2596BE" stroke-width="1.7" stroke-linecap="round" stroke-linejoin="round"/>
<path d="M175.292 189C174.703 187.473 174.59 185.818 174 184.291C181.241 182.209 190.287 179.919 197.588 178C198.224 179.325 198.62 181.309 199 182.705C196.102 183.557 184.741 186.641 175.289 189H175.292Z" fill="white" stroke="#2596BE" stroke-width="1.7" stroke-linecap="round" stroke-linejoin="round"/>
<path d="M137.053 163.976C136.976 164.255 136.99 164.551 137.053 164.833C137.182 165.404 137.623 165.874 138.203 165.979C138.326 166 138.448 166.007 138.57 165.993C138.938 165.947 139.256 165.826 139.459 165.641C139.798 165.327 139.899 165.094 139.98 164.756C140.025 164.561 139.987 164.303 139.941 164.108C139.906 163.959 139.836 163.802 139.756 163.669C139.605 163.422 139.375 163.189 139.098 163.098C138.57 162.928 138.077 162.955 137.472 163.373C137.308 163.485 137.105 163.784 137.053 163.976Z" fill="white"/>
<path d="M143.053 162.976C142.976 163.255 142.99 163.551 143.053 163.833C143.182 164.404 143.623 164.874 144.203 164.979C144.326 165 144.448 165.007 144.57 164.993C144.937 164.947 145.256 164.826 145.459 164.641C145.798 164.327 145.899 164.094 145.98 163.756C146.025 163.561 145.987 163.303 145.941 163.108C145.906 162.959 145.836 162.802 145.756 162.669C145.605 162.422 145.375 162.189 145.098 162.098C144.57 161.928 144.077 161.955 143.472 162.373C143.308 162.485 143.105 162.784 143.053 162.976Z" fill="white"/>
<path d="M149.07 161.651C148.968 161.836 148.986 162.034 149.07 162.222C149.243 162.603 149.83 162.916 150.604 162.986C150.767 163 150.931 163.004 151.094 162.995C151.583 162.965 152.008 162.884 152.278 162.761C152.73 162.552 152.866 162.396 152.973 162.171C153.033 162.041 152.982 161.869 152.922 161.739C152.875 161.639 152.782 161.535 152.674 161.446C152.474 161.281 152.166 161.126 151.798 161.065C151.094 160.952 150.436 160.97 149.63 161.249C149.41 161.323 149.14 161.523 149.07 161.651Z" fill="white"/>
<path d="M0 312C0 312 88.9156 312.896 131.632 313.058C179.888 313.242 251.896 314.355 262.957 313.7C281.97 312.578 347 314 347 314" stroke="#2596BE" stroke-width="1.7" stroke-linejoin="round"/>
</svg>
